<?xml version="1.0" encoding="utf-8"?>
<!-- Generator: Adobe Illustrator 24.2.0, SVG Export Plug-In . SVG Version: 6.00 Build 0)  -->
<svg version="1.1" xmlns="http://www.w3.org/2000/svg" xmlns:xlink="http://www.w3.org/1999/xlink" x="0px" y="0px"
	 viewBox="0 0 297 106.1" style="enable-background:new 0 0 297 106.1;" xml:space="preserve">
<style type="text/css">
	.st0{enable-background:new    ;}
	.st1{fill:#F9F8F7;}
	.st2{fill:#0099FF;}
	.st3{fill:#FF0000;}
	.st4{fill:#00B05C;}
	.st5{fill:#D5D043;}
	.st6{fill:#74329A;}
	.st7{fill:#F17C40;}
</style>
<g id="Layer_2">
</g>
<g id="Layer_3">
	<g id="Layer_2_2_">
		<g>
			<g id="Layer_1-2_11_">
				<g>
					<g class="st0">
						<g>
							<path class="st1" d="M15.5,93.7c-7.8,0-14.2-6.3-14.2-14.2V28c0-7.8,6.3-14.2,14.2-14.2h16.7c10,0,13.6,0.6,16,1.3
								c5.9,1.5,11.1,5,15,10.1c3.9,5.1,5.9,11.4,5.9,18.7c0,5.5-1.1,10.4-3.4,14.6c-2.2,4.2-5.2,7.5-8.8,10.1
								c-3.3,2.3-6.8,3.9-10.5,4.7c-0.1,0-0.2,0-0.3,0.1c-1.8,0.4-3.8,0.6-6.2,0.8v5.5c0,7.8-6.3,14.2-14.2,14.2H15.5z"/>
						</g>
					</g>
					<g class="st0">
						<g>
							<path class="st1" d="M98.7,93.7c-5.9,0-11.1-3.6-13.2-9.1l-1-2.6h-0.9l-0.9,2.4c-2,5.6-7.4,9.3-13.3,9.3h-11
								c-4.7,0-9.1-2.3-11.7-6.2s-3.2-8.8-1.5-13.1l20.1-51.5c2.1-5.4,7.4-9,13.2-9h11c5.8,0,11,3.5,13.2,8.9l20.6,51.5
								c1.7,4.4,1.2,9.3-1.4,13.2c-2.6,3.9-7,6.2-11.7,6.2H98.7z"/>
						</g>
					</g>
					<g class="st0">
						<g>
							<path class="st1" d="M146.1,93.7c-4,0-7.7-1.7-10.4-4.5c-2.6,2.8-6.3,4.5-10.4,4.5h-9.7c-7.8,0-14.2-6.3-14.2-14.2V28
								c0-7.8,6.3-14.2,14.2-14.2h10.1c4.1,0,7.9,1.7,10.5,4.7c2.6-2.9,6.4-4.7,10.5-4.7h9.7c7.8,0,14.2,6.3,14.2,14.2v51.5
								c0,7.8-6.3,14.2-14.2,14.2H146.1z"/>
						</g>
					</g>
					<g class="st0">
						<g>
							<path class="st1" d="M167.5,93.7c-7.8,0-14.2-6.3-14.2-14.2V28c0-7.8,6.3-14.2,14.2-14.2h19c5.8,0,10.1,0.5,13.8,1.6
								c5.5,1.6,10.2,4.5,14.1,8.6c3.6,3.8,6.3,8.3,8.1,13.5c1.6,4.8,2.4,10.3,2.4,16.8c0,5.8-0.8,11-2.4,15.6
								c-2,5.9-5.1,10.8-9.1,14.7c-3.4,3.3-7.7,5.8-12.9,7.4c-3.8,1.2-8.2,1.8-13.5,1.8H167.5z"/>
						</g>
					</g>
					<g class="st0">
						<g>
							<path class="st1" d="M254.7,93.7c-5.9,0-11.1-3.6-13.2-9.1l-1-2.6h-0.9l-0.9,2.4c-2,5.6-7.4,9.3-13.3,9.3h-11
								c-4.7,0-9.1-2.3-11.7-6.2s-3.2-8.8-1.5-13.1l20.1-51.5c2.1-5.4,7.4-9,13.2-9h11c5.8,0,11,3.5,13.2,8.9l20.6,51.5
								c1.7,4.4,1.2,9.3-1.4,13.2c-2.6,3.9-7,6.2-11.7,6.2H254.7z"/>
						</g>
					</g>
					<g class="st0">
						<g>
							<path class="st1" d="M271.2,93.7c-7.8,0-14.2-6.3-14.2-14.2V28c0-7.8,6.3-14.2,14.2-14.2h10.4c7.8,0,14.2,6.3,14.2,14.2v51.5
								c0,7.8-6.3,14.2-14.2,14.2H271.2z"/>
						</g>
					</g>
				</g>
			</g>
		</g>
	</g>
</g>
<g id="Layer_1">
	<g id="Layer_2_1_">
		<g>
			<g id="Layer_1-2_12_">
				<g>
					<g class="st0">
						<g>
							<path class="st2" d="M15.5,78.6V27.1h16.7c6.3,0,10.5,0.3,12.4,0.8c3,0.8,5.4,2.5,7.4,5c2,2.6,3,5.9,3,10
								c0,3.2-0.6,5.8-1.7,8c-1.1,2.2-2.6,3.8-4.4,5.1c-1.8,1.2-3.6,2-5.4,2.4c-2.5,0.5-6.1,0.7-10.8,0.7h-6.8v19.4H15.5z
								 M25.9,35.8v14.6h5.7c4.1,0,6.8-0.3,8.2-0.8c1.4-0.5,2.5-1.4,3.3-2.5c0.8-1.1,1.2-2.5,1.2-4c0-1.9-0.6-3.4-1.7-4.6
								c-1.1-1.2-2.5-2-4.2-2.3c-1.2-0.2-3.7-0.4-7.5-0.4H25.9z"/>
						</g>
					</g>
					<g class="st0">
						<g>
							<path class="st3" d="M110,78.6H98.7l-4.5-11.7H73.6l-4.3,11.7h-11l20.1-51.5h11L110,78.6z M90.8,58.2l-7.1-19.1l-7,19.1H90.8
								z"/>
						</g>
					</g>
					<g class="st0">
						<g>
							<path class="st4" d="M115.6,78.6V27.1h10.1l21.1,34.4V27.1h9.7v51.5h-10.4L125.3,45v33.6H115.6z"/>
						</g>
					</g>
					<g class="st0">
						<g>
							<path class="st5" d="M167.5,27.1h19c4.3,0,7.6,0.3,9.8,1c3,0.9,5.6,2.5,7.8,4.7s3.8,5.1,4.9,8.3s1.7,7.4,1.7,12.2
								c0,4.2-0.5,7.9-1.6,11c-1.3,3.8-3.1,6.8-5.5,9.1c-1.8,1.8-4.2,3.1-7.3,4.1c-2.3,0.7-5.4,1.1-9.2,1.1h-19.6V27.1z M177.9,35.8
								v34.1h7.8c2.9,0,5-0.2,6.3-0.5c1.7-0.4,3.1-1.1,4.2-2.1s2-2.7,2.7-5s1.1-5.5,1.1-9.4s-0.4-7-1.1-9.2s-1.7-3.8-3-5
								s-2.9-2-4.8-2.4c-1.5-0.3-4.3-0.5-8.5-0.5H177.9z"/>
						</g>
					</g>
					<g class="st0">
						<g>
							<path class="st6" d="M266,78.6h-11.3l-4.5-11.7h-20.6l-4.3,11.7h-11l20.1-51.5h11L266,78.6z M246.8,58.2l-7.1-19.1l-7,19.1
								H246.8z"/>
						</g>
					</g>
					<g class="st0">
						<g>
							<path class="st7" d="M271.2,78.6V27.1h10.4v51.5H271.2z"/>
						</g>
					</g>
				</g>
			</g>
		</g>
	</g>
</g>
</svg>
