<svg xmlns="http://www.w3.org/2000/svg" viewBox="0 0 296.97 106.08"><defs><style>.cls-1{isolation:isolate;}.cls-2{fill:#f9f8f7;}.cls-3{fill:#09f;}.cls-4{fill:red;}.cls-5{fill:#00b05c;}.cls-6{fill:#d5d043;}.cls-7{fill:#74329a;}.cls-8{fill:#f17c40;}</style></defs><g id="Layer_3" data-name="Layer 3"><g id="Layer_2-2" data-name="Layer 2"><g id="Layer_1-2" data-name="Layer 1-2"><g class="cls-1"><path class="cls-2" d="M15.5,93.68A14.17,14.17,0,0,1,1.32,79.51V28A14.17,14.17,0,0,1,15.5,13.8H32.2c10,0,13.61.6,16,1.25a27.71,27.71,0,0,1,15,10.1c3.94,5.11,5.93,11.4,5.93,18.68a30.91,30.91,0,0,1-3.38,14.64,28.35,28.35,0,0,1-8.8,10A29.21,29.21,0,0,1,46.5,73.18l-.26,0a51.46,51.46,0,0,1-6.16.78v5.5A14.17,14.17,0,0,1,25.9,93.68Z"/></g><g class="cls-1"><path class="cls-2" d="M98.67,93.68a14.18,14.18,0,0,1-13.23-9.09l-1-2.62H83.5l-.86,2.38a14.18,14.18,0,0,1-13.32,9.33h-11A14.17,14.17,0,0,1,45.07,74.37L65.15,22.83a14.16,14.16,0,0,1,13.2-9h11a14.16,14.16,0,0,1,13.15,8.9l20.64,51.54A14.17,14.17,0,0,1,110,93.68Z"/></g><g class="cls-1"><path class="cls-2" d="M146.07,93.68a14.16,14.16,0,0,1-10.39-4.53,14.14,14.14,0,0,1-10.39,4.53h-9.67a14.16,14.16,0,0,1-14.17-14.17V28A14.16,14.16,0,0,1,115.62,13.8h10.13a14.17,14.17,0,0,1,10.54,4.7,14.14,14.14,0,0,1,10.55-4.7h9.67A14.16,14.16,0,0,1,170.68,28V79.51a14.16,14.16,0,0,1-14.17,14.17Z"/></g><g class="cls-1"><path class="cls-2" d="M167.48,93.68a14.16,14.16,0,0,1-14.17-14.17V28A14.16,14.16,0,0,1,167.48,13.8h19a49.25,49.25,0,0,1,13.78,1.55A31.27,31.27,0,0,1,214.36,24a36.59,36.59,0,0,1,8,13.52,51.31,51.31,0,0,1,2.45,16.76,48,48,0,0,1-2.35,15.57,36.8,36.8,0,0,1-9,14.68,32.45,32.45,0,0,1-12.86,7.44,44.86,44.86,0,0,1-13.54,1.76Z"/></g><g class="cls-1"><path class="cls-2" d="M254.66,93.68a14.18,14.18,0,0,1-13.23-9.09l-1-2.62h-.94l-.86,2.38a14.18,14.18,0,0,1-13.32,9.33h-11a14.17,14.17,0,0,1-13.21-19.31l20.08-51.54a14.16,14.16,0,0,1,13.2-9h11a14.16,14.16,0,0,1,13.15,8.9l20.64,51.54A14.17,14.17,0,0,1,266,93.68Z"/></g><g class="cls-1"><rect class="cls-2" x="257.02" y="13.8" width="38.75" height="79.89" rx="14.17"/></g></g></g></g><g id="Layer_1" data-name="Layer 1"><g id="Layer_2-3" data-name="Layer 2"><g id="Layer_1-2-2" data-name="Layer 1-2"><g class="cls-1"><path class="cls-3" d="M15.49,78.61V27.07h16.7q9.48,0,12.37.77A13.51,13.51,0,0,1,52,32.89a16,16,0,0,1,3,10,16.88,16.88,0,0,1-1.72,8A14.11,14.11,0,0,1,48.87,56a15.14,15.14,0,0,1-5.4,2.45,59.51,59.51,0,0,1-10.79.74H25.89V78.61Zm10.4-42.82V50.41h5.7q6.15,0,8.23-.81a6.86,6.86,0,0,0,3.25-2.53,7,7,0,0,0,1.18-4,6.68,6.68,0,0,0-1.66-4.64,7.14,7.14,0,0,0-4.18-2.28,49.31,49.31,0,0,0-7.49-.35Z"/></g><g class="cls-1"><path class="cls-4" d="M110,78.61H98.66L94.16,66.9H73.56L69.31,78.61h-11L78.34,27.07h11ZM90.82,58.22l-7.1-19.13-7,19.13Z"/></g><g class="cls-1"><path class="cls-5" d="M115.61,78.61V27.07h10.13l21.09,34.42V27.07h9.67V78.61H146.06L125.28,45V78.61Z"/></g><g class="cls-1"><path class="cls-6" d="M167.47,27.07h19a37.45,37.45,0,0,1,9.81,1,17.22,17.22,0,0,1,7.77,4.75A22.32,22.32,0,0,1,209,41.15a37.86,37.86,0,0,1,1.69,12.18,34,34,0,0,1-1.58,11,22.72,22.72,0,0,1-5.52,9.1,18.41,18.41,0,0,1-7.32,4.12,31.64,31.64,0,0,1-9.21,1.09H167.47Zm10.41,8.72V69.92h7.77a28.28,28.28,0,0,0,6.29-.49,9.63,9.63,0,0,0,4.2-2.14,11,11,0,0,0,2.73-5,33.75,33.75,0,0,0,1-9.44,30.88,30.88,0,0,0-1-9.17,11.84,11.84,0,0,0-3-5,9.9,9.9,0,0,0-4.81-2.42,47.15,47.15,0,0,0-8.55-.49Z"/></g><g class="cls-1"><path class="cls-7" d="M266,78.61H254.65l-4.5-11.71h-20.6L225.3,78.61h-11l20.07-51.54h11ZM246.81,58.22l-7.1-19.13-7,19.13Z"/></g><g class="cls-1"><path class="cls-8" d="M271.18,78.61V27.07h10.41V78.61Z"/></g></g></g></g></svg>